<svg xmlns="http://www.w3.org/2000/svg" viewBox="0 0 177.72 47.17"><defs><style>.cls-1{fill:#6d6e71;}.cls-2{fill:#00a3b8;}</style></defs><g id="Layer_2" data-name="Layer 2"><g id="Layer_1-2" data-name="Layer 1"><polygon class="cls-1" points="70.6 23.77 70.6 38.62 66.38 38.62 66.38 23.77 61.64 23.77 61.64 20.3 75.34 20.3 75.34 23.77 70.6 23.77"/><path class="cls-1" d="M84.46,20.3q5.72,0,5.72,4.9a4.26,4.26,0,0,1-.8,2.74A3,3,0,0,1,87.09,29,4,4,0,0,1,90,30.24a4.41,4.41,0,0,1,1,3.08q0,5.3-6.42,5.3H77.88V20.3Zm.94,7.27a1.17,1.17,0,0,0,.65-.64,3.64,3.64,0,0,0,.19-1.36,3.58,3.58,0,0,0-.19-1.35,1.14,1.14,0,0,0-.65-.64A3.73,3.73,0,0,0,84,23.39H82v4.37H84a4.05,4.05,0,0,0,1.39-.19m.41,7.69a1.31,1.31,0,0,0,.78-.71,3.71,3.71,0,0,0,.23-1.48,3.78,3.78,0,0,0-.23-1.48,1.31,1.31,0,0,0-.79-.7,5.27,5.27,0,0,0-1.64-.2H82v4.77h2.21a5.21,5.21,0,0,0,1.65-.2"/><path class="cls-1" d="M95.19,36.54c-1.38-1.56-2.08-3.91-2.08-7q0-9.43,8.36-9.44a11.45,11.45,0,0,1,3.86.61L104.55,24a5.91,5.91,0,0,0-2.83-.63,5.67,5.67,0,0,0-2.7.51,2.89,2.89,0,0,0-1.29,1.81,14.36,14.36,0,0,0-.38,3.78,14.41,14.41,0,0,0,.37,3.72A2.73,2.73,0,0,0,99,35a5.65,5.65,0,0,0,2.64.5,6.41,6.41,0,0,0,3.29-.78l.75,3.44a11.22,11.22,0,0,1-4.21.73q-4.2,0-6.28-2.33"/><path class="cls-1" d="M121.25,20.3c3.5,0,5.24,1.58,5.24,4.74a4.88,4.88,0,0,1-.75,2.9,2.68,2.68,0,0,1-2.16,1.12,3.63,3.63,0,0,1,2.78,1.22,4.85,4.85,0,0,1,1,3.22q0,5.11-6.07,5.12h-5.49V20.3Zm1.92,7.7a1.83,1.83,0,0,0,1.09-.94,4.49,4.49,0,0,0,.33-1.94,4.81,4.81,0,0,0-.3-1.92,1.8,1.8,0,0,0-1-.94,6.23,6.23,0,0,0-2.08-.28h-3.49v6.3H121a6.69,6.69,0,0,0,2.22-.28m.56,8.61a2.07,2.07,0,0,0,1.25-1,4.88,4.88,0,0,0,.36-2.11,4.85,4.85,0,0,0-.38-2.14,2.11,2.11,0,0,0-1.29-1A9,9,0,0,0,121,30h-3.33v6.92h3.51a8.2,8.2,0,0,0,2.53-.3"/><path class="cls-1" d="M132.89,34.18l-1.5,4.44h-2.11l6.57-18.32h1.88l6.58,18.32h-2.16l-1.48-4.44Zm3.89-11.57-3.34,9.89h6.65Z"/><polygon class="cls-1" points="149.18 20.3 158.56 34.7 158.56 20.3 160.44 20.3 160.44 38.62 158.83 38.62 149.43 24.22 149.43 38.62 147.54 38.62 147.54 20.3 149.18 20.3"/><polygon class="cls-1" points="167.19 29.54 167.19 38.62 165.21 38.62 165.21 20.3 167.19 20.3 167.19 29.01 174.49 20.3 177 20.3 169.2 29.26 177.72 38.62 175.04 38.62 167.19 29.54"/><path class="cls-2" d="M23.44,26.12c.21,2.23.32,3.38-1.48,5.29a59.9,59.9,0,0,1-11.39,8.4,50.82,50.82,0,0,1-6.85,3.34c-1.54.55-2.84.79-3.48-.33a2.14,2.14,0,0,1,0-2c1.67-4.54,6.5-13,9.64-18.53.32-.56.65-1.14,1-1.72C15.72,12.25,22.14,2,23.4.39c.19-.23.52-.51.82-.33a.58.58,0,0,1,.22.65s-.08.33-.11.45c-2.08,8.44-1.86,16.71-.89,25"/><path class="cls-2" d="M30.51,28.72c-2-.93-3.1-1.41-3.85-3.93a59.81,59.81,0,0,1-1.57-14.06,48.5,48.5,0,0,1,.53-7.6c.29-1.61.73-2.85,2-2.85a2.16,2.16,0,0,1,1.7,1c3.09,3.72,8,12.13,11.22,17.61.33.56.66,1.14,1,1.73C46.37,29,52,39.64,52.8,41.55c.12.28.19.71-.12.88A.59.59,0,0,1,52,42.3L51.67,42C45.4,36,38.13,32,30.51,28.72"/><path class="cls-2" d="M24.72,33.54c1.82-1.3,2.77-2,5.32-1.36a59.58,59.58,0,0,1,13,5.66,49.37,49.37,0,0,1,6.31,4.26c1.25,1.06,2.1,2.06,1.46,3.18a2.16,2.16,0,0,1-1.7,1c-4.77.82-14.52.87-20.87.91h-2c-9.65,0-21.71-.46-23.76-.73-.3,0-.71-.19-.71-.55s.26-.44.46-.51l.45-.13C11,42.83,18.06,38.5,24.72,33.54"/></g></g></svg>